<svg width="150" height="60" viewBox="0 0 150 60" fill="none" xmlns="http://www.w3.org/2000/svg">
<g clip-path="url(#clip0_4118_36)">
<path d="M108.817 22.0701C108.473 23.2211 108.117 24.3731 107.771 25.5261C106.955 28.2571 106.141 30.9891 105.327 33.7211C105.068 34.5881 104.676 34.8711 103.743 34.8711H102.449C101.673 34.8711 101.258 34.5851 101.035 33.8471C100.345 31.5591 99.6614 29.2661 98.9738 26.9751C98.5138 25.4431 98.0527 23.9111 97.5896 22.3801C97.5635 22.2668 97.5051 22.1633 97.4215 22.0821V33.5301C97.4215 34.4801 97.0158 34.8751 96.0423 34.8761C95.4091 34.8761 94.7769 34.8811 94.1446 34.8761C93.3956 34.8681 92.9366 34.4281 92.9366 33.7001C92.9336 28.5271 92.9336 23.3551 92.9366 18.1851C92.9366 17.4771 93.3896 17.0291 94.1124 17.0251C95.6497 17.0171 97.1869 17.0171 98.7232 17.0251C99.3775 17.0251 99.8024 17.3381 99.9916 18.0051C100.553 19.9721 101.095 21.9431 101.643 23.9131L103.138 29.3021C103.203 29.1201 103.247 29.0171 103.277 28.9091L106.208 18.3331C106.509 17.2481 106.807 17.0221 107.957 17.0221H112.095C112.93 17.0221 113.368 17.4471 113.369 18.2581V33.6481C113.369 34.4491 112.921 34.8721 112.085 34.8751H110.189C109.327 34.8751 108.887 34.4581 108.887 33.6241V22.0831L108.817 22.0701ZM84.9201 23.4601L81.7289 29.5021C80.9205 31.0351 80.1121 32.5691 79.3047 34.1041C79.0228 34.6411 78.594 34.8941 77.9557 34.8781C76.9359 34.8511 75.9151 34.8731 74.8953 34.8701C74.0849 34.8701 73.6269 34.4401 73.6259 33.6711V18.1971C73.6259 17.4641 74.0769 17.0291 74.8279 17.0181C75.5024 17.0111 76.1779 17.0131 76.8544 17.0181C77.6628 17.0231 78.1057 17.4501 78.1067 18.2321V28.692L78.1772 28.7191C78.2577 28.5851 78.3483 28.4541 78.4198 28.3151C80.244 24.8671 82.0742 21.4221 83.8792 17.9641C84.2235 17.3061 84.6745 16.9691 85.4628 17.0091C86.3658 17.0541 87.2738 17.0191 88.1779 17.0201C89.0497 17.0201 89.4866 17.4371 89.4866 18.2641V33.6171C89.4866 34.4511 89.0557 34.8741 88.193 34.8771H86.253C85.4517 34.8721 85.0057 34.4391 85.0057 33.6571V23.4831L84.9201 23.4601ZM121.332 31.1151H130.289C131.123 31.1151 131.558 31.5401 131.563 32.3491C131.563 32.8081 131.57 33.2671 131.563 33.7261C131.551 34.4061 131.102 34.8661 130.409 34.8671C126.27 34.8731 122.131 34.8731 117.993 34.8671C117.292 34.8671 116.823 34.4171 116.822 33.7421C116.817 28.5421 116.817 23.3421 116.822 18.1391C116.822 17.4621 117.287 17.0161 117.991 17.0151C122.129 17.0101 126.269 17.0101 130.407 17.0151C131.106 17.0151 131.551 17.4701 131.563 18.1521C131.57 18.6121 131.563 19.0701 131.563 19.5291C131.558 20.3391 131.123 20.7641 130.29 20.7651H121.335V24.1021H130.194C131.147 24.1021 131.56 24.5001 131.562 25.4151V26.6671C131.554 27.4171 131.108 27.8541 130.326 27.8551C127.467 27.8581 124.608 27.8581 121.749 27.8551H121.334L121.332 31.1151Z" fill="#192028"/>
<path fill-rule="evenodd" clip-rule="evenodd" d="M64.6319 17.0161H61.5684C60.8436 17.0191 60.5134 17.2381 60.2658 17.8791C59.0255 21.0751 57.7892 24.2721 56.558 27.4701L56.1302 28.5781C55.5101 30.1841 54.8889 31.7901 54.296 33.4051C54.0121 34.1901 54.5547 34.8601 55.4174 34.8701C55.9238 34.8751 56.4312 34.8741 56.9386 34.8721L57.7007 34.8701C58.3631 34.8701 58.7084 34.6341 58.9339 34.0361L59.0265 33.7891C59.2691 33.156 59.504 32.5199 59.7312 31.8811C59.8037 31.6731 59.9084 31.6101 60.1309 31.6101C62.0859 31.6181 64.0399 31.6181 65.995 31.6101C66.2174 31.6091 66.3191 31.6821 66.3906 31.8871C66.5668 32.3901 66.754 32.8871 66.9423 33.3871L67.1597 33.9631C67.4194 34.6611 67.7295 34.8701 68.5117 34.8701H70.495C71.6577 34.8701 72.158 34.2051 71.7533 33.1571C69.7782 28.0341 67.799 22.9141 65.8168 17.7971C65.6033 17.2441 65.253 17.0211 64.6319 17.0161ZM63.009 22.1361H63.1137L65.0547 27.8421H61.0711L63.009 22.1371V22.1361ZM139.493 33.6001V29.1961C139.814 29.1961 140.132 29.1991 140.447 29.2021C141.186 29.2091 141.909 29.2151 142.632 29.1831C143.547 29.1461 144.475 29.1011 145.368 28.9241C147.628 28.4771 149.267 27.2781 149.785 25.0081C149.967 24.1662 150.033 23.3038 149.983 22.4441C149.843 19.7071 148.351 17.9761 145.592 17.3341C144.781 17.147 143.954 17.0451 143.122 17.0301C141.459 17.0001 139.796 17.0051 138.133 17.0101C137.497 17.0121 136.86 17.0141 136.224 17.0141C135.468 17.0141 135.012 17.4541 135.012 18.1831C135.008 23.3561 135.008 28.5291 135.012 33.7031C135.012 34.4271 135.475 34.8631 136.226 34.8701C136.658 34.8741 137.089 34.8731 137.52 34.8721L138.167 34.8701C139.062 34.8691 139.493 34.4571 139.493 33.6001ZM139.525 25.4361V20.7761C139.922 20.7761 140.314 20.7721 140.705 20.7691C141.569 20.7554 142.433 20.7604 143.297 20.7841C144.555 20.8281 145.528 21.8771 145.528 23.1041C145.528 24.3301 144.547 25.3811 143.3 25.4261C142.437 25.4571 141.57 25.4501 140.693 25.4431C140.305 25.4391 139.917 25.4361 139.525 25.4361Z" fill="#192028"/>
<path d="M50.5017 25.1152C50.995 25.3972 51.5104 25.6252 51.9453 25.9492C53.0819 26.8062 53.4614 27.9972 53.399 29.3472C53.2641 32.2502 50.8983 34.1532 48.0977 34.6872C46.2856 35.0392 44.4131 34.9532 42.6453 34.4372C40.4034 33.7852 38.8792 32.4342 38.3255 30.1592C38.1212 29.3252 38.5722 28.7092 39.4561 28.7022C40.203 28.6962 40.95 28.7022 41.698 28.7022C42.3242 28.7022 42.6534 28.9252 42.8819 29.4822C43.6208 31.2882 45.9121 32.0322 47.6547 31.0302C48.3453 30.6342 48.6896 30.0502 48.6544 29.2652C48.6192 28.4802 48.2467 27.8372 47.4806 27.5692C46.8876 27.3622 46.2292 27.2792 45.593 27.2452C44.5591 27.1912 44.1926 26.8822 44.1836 25.8822C44.1766 25.5908 44.188 25.2992 44.2178 25.0092C44.2822 24.4642 44.694 24.1242 45.2668 24.1002C45.6977 24.0822 46.1285 24.0952 46.5494 24.0172C47.6618 23.8102 48.2839 23.0992 48.2265 22.1682C48.1732 21.2892 47.3507 20.4942 46.3118 20.4552C45.6816 20.4322 45.0312 20.5452 44.4151 20.6852C43.9128 20.8002 43.5312 21.1532 43.3218 21.6252C43.0228 22.3012 42.5225 22.5872 41.7584 22.5242C41.2168 22.4792 40.6671 22.5162 40.1205 22.5142C39.1218 22.5142 38.6265 21.8992 38.8822 20.9482C39.2386 19.6252 40.0782 18.6542 41.2832 17.9732C42.3604 17.3642 43.5584 17.1232 44.7816 17.0372C46.2332 16.9342 47.6809 17.0042 49.0873 17.4202C50.0225 17.6962 50.8651 18.1202 51.5557 18.8072C53.4403 20.6822 53.0557 23.6212 50.7463 24.9712L50.5017 25.1152ZM82.0601 16.1872C80.8369 16.1632 79.8131 15.9972 78.8889 15.4572C78.3534 15.1442 77.8883 14.7522 77.6285 14.1872C77.3688 13.6212 77.542 13.0432 78.0343 12.7122C78.2715 12.5464 78.5621 12.4736 78.8501 12.5077C79.1382 12.5419 79.4033 12.6806 79.5947 12.8972C80.5289 13.9172 81.7007 14.0122 82.9369 13.6832C83.3759 13.5672 83.7735 13.2332 84.1359 12.9372C84.4983 12.6402 84.8859 12.4222 85.3812 12.5472C85.8282 12.6452 86.1755 12.9872 86.2671 13.4222C86.3718 13.8442 86.2198 14.2152 85.9581 14.5492C85.2282 15.4822 84.2044 15.9012 83.0547 16.0872C82.6732 16.1512 82.2846 16.1672 82.0601 16.1872Z" fill="#192028"/>
<path fill-rule="evenodd" clip-rule="evenodd" d="M41.0658 41.5379H38.4202V47.3599H39.9916V45.4139H41.3195C42.5698 45.4139 43.4406 44.8089 43.4406 43.4999C43.4406 42.0609 42.446 41.5379 41.0658 41.5379ZM41.9195 43.5179C41.9195 44.1949 41.4202 44.2359 40.8796 44.2359L39.9916 44.2369V42.7809H41.0064C41.5561 42.7809 41.9195 42.9539 41.9195 43.5179ZM44.0135 44.4499C44.0135 46.2239 45.1712 47.4999 47.0306 47.4999C48.8567 47.4999 49.9631 46.1669 49.9621 44.4569C49.9621 42.5839 48.8044 41.3979 47.0124 41.3979C45.2044 41.3979 44.0124 42.7239 44.0124 44.4489L44.0135 44.4499ZM45.6171 44.4359C45.6171 43.3319 46.1517 42.6359 46.9963 42.6359C47.842 42.6359 48.3574 43.3039 48.3554 44.4109C48.3554 45.5729 47.8571 46.2509 47.0034 46.2509C46.1346 46.2509 45.6171 45.5719 45.6171 44.4359ZM50.842 47.3609H53.7242C55.2202 47.3609 56.098 46.8089 56.095 45.3979C56.095 44.0889 55.2081 43.4839 53.8047 43.4839H52.3943V42.7639H55.5846V41.5379H50.843V47.3609H50.842ZM52.3883 44.6709H53.4705C54.0111 44.6709 54.5094 44.7439 54.5054 45.3909C54.5054 45.9549 54.1762 46.1269 53.5088 46.1269H52.3893L52.3883 44.6709ZM56.7564 44.4499C56.7564 46.2239 57.9151 47.4999 59.7745 47.4999C61.5997 47.4999 62.7061 46.1669 62.7051 44.4569C62.7051 42.5839 61.5473 41.3979 59.7554 41.3979C57.9484 41.3979 56.7554 42.7239 56.7554 44.4489L56.7564 44.4499ZM58.3611 44.4329C58.3611 43.3289 58.8947 42.6339 59.7403 42.6339V42.6369C60.5849 42.6369 61.0994 43.3039 61.0994 44.4089C61.0994 45.5709 60.6 46.2489 59.7463 46.2489C58.8786 46.2489 58.3611 45.5689 58.3611 44.4329Z" fill="#7D8888"/>
<path d="M68.3678 42.8301H66.5839V47.3611H64.9953V42.8311H63.2124V41.5381H68.3668L68.3678 42.8301Z" fill="#7D8888"/>
<path fill-rule="evenodd" clip-rule="evenodd" d="M71.5671 44.4499C71.5671 46.2239 72.7269 47.4999 74.5853 47.4999C76.4124 47.4999 77.5178 46.1669 77.5168 44.4569C77.5168 42.5839 76.3591 41.3979 74.5671 41.3979C72.7591 41.3979 71.5671 42.7249 71.5671 44.4499ZM73.1718 44.4329C73.1718 43.3289 73.7064 42.6339 74.551 42.6339L74.553 42.6369C75.3987 42.6369 75.9141 43.3039 75.9101 44.4089C75.9101 45.5709 75.4118 46.2489 74.5581 46.2489C73.6893 46.2489 73.1718 45.5689 73.1718 44.4329Z" fill="#7D8888"/>
<path d="M83.5953 47.3611H82.0148V44.9561H79.9782V47.3601H78.3976V41.5381H79.9782V43.6151H82.0148V41.5381H83.5953V47.3611ZM89.8903 47.3611H88.3097V42.8311H86.9758L86.8993 45.0961C86.8399 46.7391 86.0879 47.4761 85.057 47.4761C84.778 47.4725 84.5002 47.4365 84.2295 47.3691V46.1511C84.3785 46.2011 84.5356 46.2261 84.6936 46.2251C85.049 46.2251 85.3359 46.0781 85.3701 44.8841L85.4708 41.5391H89.8913L89.8903 47.3611Z" fill="#7D8888"/>
<path fill-rule="evenodd" clip-rule="evenodd" d="M94.8483 47.3611H96.4731L94.2231 41.5311H92.6345L90.3775 47.3611H91.9832L92.3809 46.2981H94.4597L94.8483 47.3611ZM92.7413 45.2011L93.4309 43.1661L94.1104 45.2021L92.7413 45.2011ZM98.1372 40.0181C98.1372 40.8931 98.8902 41.2531 99.6845 41.2531C100.479 41.2531 101.23 40.8921 101.23 40.0181H100.505C100.429 40.3361 100.082 40.4911 99.6845 40.4911C99.2869 40.4911 98.9396 40.3361 98.8641 40.0181H98.1372ZM100.639 47.3611H102.169L102.168 41.5381H100.494L98.4402 45.4141L98.4997 41.5381H96.9694V47.3611H98.695L100.749 43.4851L100.639 47.3611Z" fill="#7D8888"/>
<path d="M108.464 47.3609H106.884V44.9559H104.851V47.3599H103.27V41.5379H104.851V43.6149H106.888V41.5379H108.468L108.464 47.3609ZM114.615 47.4999C112.942 47.4999 111.953 46.7309 111.928 45.4139H113.509C113.509 46.0999 113.998 46.3319 114.607 46.3319C115.139 46.3319 115.511 46.0369 115.511 45.6279C115.511 45.1459 115.113 44.8839 114.54 44.8839H113.982V43.8199C114.159 43.8369 114.362 43.8369 114.438 43.8369C115.113 43.8369 115.359 43.5339 115.359 43.1829C115.359 42.8629 115.046 42.5609 114.573 42.5609C113.964 42.5609 113.623 42.8059 113.592 43.2729H112.094C112.119 42.0629 113.033 41.3999 114.537 41.3999C115.973 41.3999 116.886 42.0049 116.886 43.0199C116.886 43.5199 116.489 44.0249 116.033 44.1879C116.342 44.2451 116.621 44.4099 116.819 44.6527C117.017 44.8955 117.121 45.2004 117.114 45.5129C117.117 46.6989 116.027 47.4999 114.615 47.4999Z" fill="#7D8888"/>
<path fill-rule="evenodd" clip-rule="evenodd" d="M121.79 47.3611H123.413L121.165 41.5311H119.576L117.319 47.3611H118.924L119.322 46.2981H121.4L121.79 47.3611ZM119.682 45.2011L120.371 43.1661L121.051 45.2021L119.682 45.2011ZM125.077 40.0181C125.077 40.8931 125.829 41.2531 126.623 41.2531C127.417 41.2531 128.169 40.8921 128.172 40.0181H127.445C127.368 40.3361 127.022 40.4911 126.624 40.4911C126.227 40.4911 125.88 40.3361 125.805 40.0181H125.077ZM127.578 47.3611H129.108L129.105 41.5381H127.432L125.378 45.4141L125.437 41.5381H123.907V47.3611H125.632L127.687 43.4851L127.578 47.3611Z" fill="#7D8888"/>
<path d="M130.223 41.5381H132.505L133.604 45.5781L134.724 41.5381H136.947V47.3601H135.462L135.538 42.9201L134.195 47.3601H132.987L131.652 42.9281L131.702 47.3601H130.223V41.5381Z" fill="#7D8888"/>
<path fill-rule="evenodd" clip-rule="evenodd" d="M137.844 44.4499C137.844 46.2239 139.003 47.4999 140.862 47.4999C142.687 47.4999 143.795 46.1669 143.793 44.4569C143.793 42.5839 142.636 41.3979 140.844 41.3979C139.036 41.3979 137.844 42.7249 137.844 44.4499ZM139.449 44.4329C139.449 43.3289 139.983 42.6339 140.829 42.6339V42.6369C141.669 42.6369 142.187 43.3039 142.187 44.4089C142.187 45.5709 141.688 46.2489 140.835 46.2489C139.966 46.2489 139.449 45.5689 139.449 44.4329ZM144.673 41.5379H147.699C148.738 41.5379 149.642 41.9219 149.642 43.0009C149.642 43.5849 149.364 43.9189 148.856 44.1789C149.574 44.4069 149.938 44.8909 149.938 45.6089C149.938 46.1489 149.735 46.5989 149.347 46.9179C148.829 47.3439 148.247 47.3589 147.597 47.3589H144.673V41.5379ZM147.334 43.8279C147.867 43.8279 148.11 43.6559 148.11 43.2629C148.11 42.7809 147.713 42.6989 147.291 42.6989H146.21V43.8289L147.334 43.8279ZM148.349 45.4949C148.349 46.0679 147.926 46.1579 147.453 46.1579L146.21 46.1629V44.8279H147.411C147.901 44.8279 148.349 44.9229 148.349 45.4949Z" fill="#7D8888"/>
<path d="M0 37.127H10.0027V46.829H0V37.127Z" fill="#FF8900"/>
<path d="M10.0027 37.127L0 46.829V37.127H10.0027Z" fill="#FFA700"/>
<path d="M10.0027 37.127H20.0054V46.829H10.0027V37.127Z" fill="#FFB83A"/>
<path d="M20.0044 37.127L10.0027 46.829V37.127H20.0044Z" fill="#FFCA49"/>
<path d="M10.0027 27.4258H20.0054V37.1278H10.0027V27.4258Z" fill="#B8BA3C"/>
<path d="M20.0044 27.4258L10.0027 37.1268V27.4258H20.0044Z" fill="#CACB4B"/>
<path d="M20.0043 27.4258H30.007V37.1278H20.0043V27.4258Z" fill="#61C528"/>
<path d="M30.007 27.4258L20.0043 37.1268V27.4258H30.007Z" fill="#8DCC4E"/>
<path d="M20.0043 17.7241H30.007V27.4261H20.0043V17.7241Z" fill="#4C9D33"/>
<path d="M30.007 17.7241L20.0043 27.4251V17.7241H30.007Z" fill="#5FB640"/>
</g>
<defs>
<clipPath id="clip0_4118_36">
<rect width="150" height="36" fill="white" transform="translate(0 12)"/>
</clipPath>
</defs>
</svg>
